<svg width="114" height="31" viewBox="0 0 114 31" fill="none" xmlns="http://www.w3.org/2000/svg">
<path d="M53.8369 30.0972C53.7097 30.0972 53.6022 30.058 53.5142 29.9796C53.4359 29.8914 53.3968 29.7837 53.3968 29.6563V22.4986C53.3968 22.3614 53.4359 22.2537 53.5142 22.1753C53.6022 22.0969 53.7097 22.0578 53.8369 22.0578C53.9738 22.0578 54.0813 22.0969 54.1595 22.1753C54.2378 22.2537 54.2769 22.3614 54.2769 22.4986V29.6563C54.2769 29.7837 54.2378 29.8914 54.1595 29.9796C54.0813 30.058 53.9738 30.0972 53.8369 30.0972ZM53.8206 20.3695C53.6348 20.3695 53.4718 20.3075 53.3349 20.1802C53.2078 20.043 53.1426 19.8765 53.1426 19.6805C53.1426 19.4552 53.211 19.2887 53.3479 19.1809C53.4946 19.0634 53.6543 19.0046 53.8336 19.0046C53.9998 19.0046 54.1498 19.0634 54.2899 19.1809C54.4366 19.2887 54.5083 19.4552 54.5083 19.6805C54.5083 19.8765 54.4399 20.043 54.303 20.1802C54.1758 20.3075 54.0129 20.3695 53.8173 20.3695H53.8206ZM64.1532 30.0972C64.026 30.0972 63.9185 30.058 63.8305 29.9796C63.7522 29.8914 63.7131 29.7837 63.7131 29.6563V25.7019C63.7131 25.0554 63.586 24.5231 63.3318 24.1019C63.0873 23.6807 62.7483 23.3672 62.3213 23.1615C61.9008 22.9459 61.4217 22.8382 60.8839 22.8382C60.3461 22.8382 59.8832 22.9427 59.4595 23.1451C59.039 23.3411 58.7065 23.6153 58.4621 23.968C58.2176 24.3207 58.097 24.7158 58.097 25.1566H57.3636C57.4027 24.5492 57.5853 24.0072 57.9047 23.5272C58.2274 23.0374 58.6479 22.6553 59.1661 22.381C59.6844 22.0969 60.2581 21.9533 60.8806 21.9533C61.5847 21.9533 62.217 22.1002 62.7711 22.3941C63.3383 22.6782 63.7848 23.0994 64.1075 23.6578C64.4302 24.2064 64.5932 24.8856 64.5932 25.6987V29.6531C64.5932 29.7804 64.5508 29.8882 64.4628 29.9763C64.3846 30.0547 64.2835 30.0939 64.1564 30.0939L64.1532 30.0972ZM57.6537 30.0972C57.5266 30.0972 57.419 30.058 57.331 29.9796C57.2528 29.8914 57.2137 29.7837 57.2137 29.6563V22.4986C57.2137 22.3614 57.2528 22.2537 57.331 22.1753C57.419 22.0969 57.5266 22.0578 57.6537 22.0578C57.7906 22.0578 57.8982 22.0969 57.9764 22.1753C58.0546 22.2537 58.0938 22.3614 58.0938 22.4986V29.6563C58.0938 29.7837 58.0546 29.8914 57.9764 29.9796C57.8982 30.058 57.7906 30.0972 57.6537 30.0972ZM74.9291 30.1853C74.1663 30.1853 73.4818 30.0025 72.8756 29.6433C72.2791 29.2808 71.8032 28.791 71.4512 28.1738C71.1089 27.5567 70.9394 26.8611 70.9394 26.0872C70.9394 25.3133 71.0992 24.6048 71.4251 23.9876C71.7478 23.3704 72.1911 22.8872 72.7615 22.5312C73.3286 22.1688 73.9805 21.9892 74.7139 21.9892C75.3398 21.9892 75.9134 22.1133 76.4284 22.3549C76.9467 22.59 77.3965 22.9525 77.7779 23.4423C77.8561 23.5402 77.8854 23.6447 77.8659 23.7492C77.8463 23.857 77.7811 23.9452 77.6736 24.0137C77.5855 24.0823 77.4878 24.1117 77.3802 24.1019C77.2726 24.0823 77.1781 24.0235 77.0999 23.9256C76.4741 23.181 75.6787 22.8088 74.7107 22.8088C74.1337 22.8088 73.6253 22.9492 73.1852 23.2366C72.755 23.5207 72.4192 23.9092 72.1748 24.399C71.9401 24.8888 71.8228 25.4505 71.8228 26.0872C71.8228 26.724 71.9531 27.2628 72.2172 27.7624C72.4812 28.2522 72.843 28.6441 73.3026 28.9379C73.7719 29.222 74.313 29.3657 74.9323 29.3657C75.3332 29.3657 75.7081 29.3069 76.0601 29.1894C76.4219 29.0718 76.7348 28.889 76.9988 28.6441C77.0868 28.5657 77.1846 28.52 77.2922 28.5134C77.3998 28.5069 77.491 28.5363 77.5693 28.6179C77.667 28.7061 77.7159 28.8073 77.7159 28.9249C77.7257 29.0326 77.6866 29.1241 77.5986 29.2024C76.8848 29.8588 75.9949 30.1853 74.9291 30.1853ZM81.6893 30.0972C81.3177 30.0972 80.9852 29.9927 80.6918 29.7902C80.4083 29.5845 80.1834 29.3004 80.0171 28.9379C79.8607 28.5755 79.7824 28.1542 79.7824 27.6742V19.0634C79.7824 18.9262 79.8216 18.8185 79.8998 18.7401C79.9878 18.6617 80.0954 18.6226 80.2225 18.6226C80.3594 18.6226 80.4669 18.6617 80.5452 18.7401C80.6234 18.8185 80.6625 18.9262 80.6625 19.0634V27.6742C80.6625 28.1249 80.757 28.4971 80.9428 28.791C81.1384 29.0751 81.3861 29.2188 81.6893 29.2188H82.0543C82.1619 29.2188 82.2499 29.2579 82.3183 29.3363C82.3868 29.4147 82.4226 29.5224 82.4226 29.6596C82.4226 29.7869 82.3835 29.8947 82.3053 29.9829C82.2271 30.0612 82.1195 30.1004 81.9826 30.1004H81.6893V30.0972ZM87.2532 30.1853C86.4709 30.1853 85.7669 30.009 85.1411 29.6563C84.525 29.2939 84.0361 28.8041 83.6743 28.1869C83.3223 27.5599 83.1462 26.8579 83.1462 26.084C83.1462 25.3101 83.3223 24.6015 83.6743 23.9843C84.0361 23.3574 84.525 22.8676 85.1411 22.5149C85.7669 22.1524 86.4709 21.9696 87.2532 21.9696C88.0355 21.9696 88.733 22.1524 89.3491 22.5149C89.9651 22.8676 90.4508 23.3574 90.7996 23.9843C91.1614 24.6015 91.3439 25.3036 91.3439 26.084C91.3439 26.8644 91.1646 27.5599 90.7996 28.1869C90.4475 28.8041 89.9619 29.2939 89.3491 29.6563C88.733 30.009 88.0322 30.1853 87.2532 30.1853ZM87.2532 29.3624C87.8693 29.3624 88.4169 29.222 88.896 28.9347C89.3849 28.6408 89.7663 28.2489 90.0401 27.7591C90.3237 27.2595 90.4638 26.6946 90.4638 26.0677C90.4638 25.4407 90.3237 24.8986 90.0401 24.4088C89.7663 23.9092 89.3849 23.5174 88.896 23.2333C88.4169 22.9394 87.8693 22.7925 87.2532 22.7925C86.6372 22.7925 86.0994 22.9394 85.6104 23.2333C85.1215 23.5174 84.7369 23.9092 84.4533 24.4088C84.1697 24.8986 84.0263 25.457 84.0263 26.084C84.0263 26.7109 84.1697 27.2595 84.4533 27.7591C84.7369 28.2489 85.1215 28.6408 85.6104 28.9347C86.0994 29.2188 86.6469 29.3624 87.2532 29.3624ZM97.1034 30.1984C96.3994 30.1984 95.767 30.0547 95.2129 29.7706C94.6555 29.4767 94.209 29.049 93.8765 28.4906C93.5538 27.9322 93.3908 27.253 93.3908 26.4464V22.4953C93.3908 22.368 93.43 22.2635 93.5082 22.1884C93.5962 22.1002 93.7038 22.0578 93.8309 22.0578C93.958 22.0578 94.0623 22.1002 94.1405 22.1884C94.2285 22.2667 94.2709 22.3712 94.2709 22.4953V26.4464C94.2709 27.0832 94.3948 27.6187 94.636 28.0498C94.8902 28.471 95.2292 28.7877 95.6497 29.0032C96.0799 29.209 96.5623 29.3102 97.1002 29.3102C97.638 29.3102 98.1041 29.209 98.5213 29.0032C98.9418 28.7975 99.2742 28.5232 99.5187 28.1804C99.7632 27.8277 99.8838 27.4326 99.8838 26.9885H100.617C100.578 27.5959 100.399 28.1444 100.076 28.6343C99.7534 29.1143 99.3329 29.4963 98.8147 29.7804C98.3062 30.0547 97.7325 30.1918 97.0969 30.1918L97.1034 30.1984ZM100.33 30.0972C100.203 30.0972 100.096 30.058 100.008 29.9796C99.9294 29.8914 99.8903 29.7837 99.8903 29.6563V22.4986C99.8903 22.3614 99.9294 22.2537 100.008 22.1753C100.096 22.0969 100.203 22.0578 100.33 22.0578C100.467 22.0578 100.575 22.0969 100.653 22.1753C100.731 22.2537 100.77 22.3614 100.77 22.4986V29.6563C100.77 29.7837 100.731 29.8914 100.653 29.9796C100.575 30.058 100.467 30.0972 100.33 30.0972ZM107.077 30.1853C106.295 30.1853 105.591 30.009 104.965 29.6563C104.349 29.2939 103.86 28.8041 103.499 28.1869C103.147 27.5599 102.971 26.8546 102.971 26.0709C102.971 25.2872 103.147 24.5884 103.499 23.9713C103.86 23.3541 104.349 22.8708 104.965 22.5149C105.591 22.1524 106.295 21.9696 107.077 21.9696C107.782 21.9696 108.414 22.1231 108.971 22.4267C109.538 22.7304 109.978 23.1353 110.291 23.648V19.0634C110.291 18.9262 110.33 18.8185 110.409 18.7401C110.497 18.6617 110.604 18.6226 110.731 18.6226C110.868 18.6226 110.976 18.6617 111.054 18.7401C111.132 18.8185 111.171 18.9262 111.171 19.0634V26.1624C111.162 26.9265 110.976 27.6122 110.614 28.2195C110.252 28.8269 109.763 29.3069 109.147 29.6596C108.541 30.0123 107.853 30.1886 107.077 30.1886V30.1853ZM107.077 29.3624C107.694 29.3624 108.241 29.222 108.72 28.9347C109.209 28.6408 109.591 28.2489 109.864 27.7591C110.148 27.2595 110.288 26.6946 110.288 26.0677C110.288 25.4407 110.148 24.8823 109.864 24.3925C109.591 23.9027 109.209 23.5174 108.72 23.23C108.241 22.9361 107.694 22.7892 107.077 22.7892C106.461 22.7892 105.924 22.9361 105.435 23.23C104.946 23.5141 104.561 23.9027 104.274 24.3925C103.991 24.8823 103.851 25.4407 103.851 26.0677C103.851 26.6946 103.991 27.2595 104.274 27.7591C104.558 28.2489 104.946 28.6408 105.435 28.9347C105.924 29.2188 106.471 29.3624 107.077 29.3624Z" fill="black"/>
<path d="M112.476 7.57578C112.105 6.92271 111.593 6.40677 110.954 6.03452C110.309 5.65247 109.578 5.45654 108.78 5.45654C107.981 5.45654 107.238 5.65247 106.593 6.03452C105.951 6.40677 105.436 6.92597 105.054 7.57578C104.683 8.23213 104.494 8.97337 104.494 9.77992C104.494 10.5865 104.666 11.3212 105.005 11.9743C105.344 12.5914 105.801 13.091 106.361 13.4666L106.44 13.5221C107.046 13.8976 107.734 14.087 108.49 14.087C109.246 14.087 109.937 13.8976 110.543 13.5188C110.693 13.4208 110.83 13.3229 110.954 13.2184C110.993 13.411 111.081 13.5841 111.211 13.7278L111.27 13.7866H111.277C111.472 13.9498 111.717 14.038 111.987 14.038C112.281 14.038 112.538 13.9368 112.734 13.7408C112.939 13.5351 113.047 13.2772 113.047 12.98V9.66564C113.03 8.89827 112.838 8.19294 112.473 7.57252L112.476 7.57578ZM106.554 9.78319C106.554 9.32277 106.651 8.91459 106.844 8.56193C107.043 8.19947 107.307 7.92518 107.649 7.71946C107.985 7.51374 108.366 7.40598 108.783 7.40598C109.2 7.40598 109.588 7.51048 109.917 7.7162C110.25 7.91865 110.507 8.19294 110.703 8.5554C110.899 8.91133 110.993 9.31297 110.993 9.77666C110.993 10.2403 110.899 10.6322 110.703 11.0012C110.514 11.3506 110.256 11.6249 109.917 11.8404C109.582 12.0396 109.21 12.1375 108.783 12.1375C108.356 12.1375 107.991 12.0396 107.652 11.8437C107.31 11.6281 107.046 11.3538 106.85 11.0044C106.655 10.6387 106.56 10.2371 106.56 9.78319H106.554Z" fill="black"/>
<path d="M101.27 5.9209C100.703 5.60742 100.058 5.45068 99.3504 5.45068C98.643 5.45068 98.0531 5.59763 97.4892 5.90784C97.3718 5.96988 97.2578 6.04172 97.1469 6.12009C97.0981 6.00907 97.0296 5.9111 96.9449 5.82294C96.7493 5.62701 96.4918 5.52579 96.1854 5.52579C95.879 5.52579 95.6378 5.62375 95.4324 5.81314L95.3803 5.86539V5.87192C95.2173 6.06131 95.1326 6.29969 95.1326 6.58377V12.9905C95.1326 13.2746 95.2304 13.5325 95.4129 13.735L95.4748 13.797H95.4813C95.6769 13.9603 95.9214 14.0485 96.1919 14.0485C96.495 14.0485 96.7591 13.9472 96.9514 13.7513L97.0003 13.6991V13.6925C97.16 13.4966 97.2447 13.255 97.2447 12.9872V8.93486C97.2447 8.64424 97.3197 8.4026 97.4729 8.18708C97.6359 7.95197 97.8477 7.76911 98.1248 7.6287C98.4051 7.48829 98.7213 7.41645 99.07 7.41645C99.4579 7.41645 99.7969 7.49155 100.087 7.64176C100.371 7.77564 100.592 7.98136 100.762 8.27198C100.934 8.56587 101.019 8.96098 101.019 9.44426V12.9774C101.019 13.2615 101.114 13.5195 101.3 13.7252L101.326 13.7513C101.326 13.7513 101.339 13.7644 101.345 13.7709L101.365 13.7905C101.56 13.9538 101.805 14.0419 102.075 14.0419C102.369 14.0419 102.626 13.9407 102.822 13.7448C103.027 13.5391 103.135 13.2811 103.135 12.9839V9.45079C103.135 8.60179 102.965 7.8736 102.636 7.28257C102.313 6.685 101.854 6.22458 101.273 5.91763L101.27 5.9209Z" fill="black"/>
<path d="M91.9904 2.34229C91.6449 2.34229 91.332 2.47617 91.0843 2.7276C90.8398 2.97251 90.7192 3.27292 90.7192 3.61905C90.7192 3.96519 90.8366 4.25907 91.068 4.50724L91.0908 4.53336C91.0908 4.53336 91.0941 4.53663 91.0973 4.53989L91.1299 4.57255C91.3744 4.78806 91.6612 4.89582 91.9839 4.89582C92.3262 4.89582 92.6358 4.76847 92.8738 4.52683C93.128 4.27213 93.2584 3.96845 93.2584 3.62232C93.2584 3.27619 93.128 2.97251 92.877 2.73087C92.6326 2.4729 92.3327 2.34555 91.9839 2.34555L91.9904 2.34229Z" fill="black"/>
<path d="M91.9901 5.51938C91.6967 5.51938 91.4425 5.61734 91.2371 5.80673L91.185 5.85898V5.86551C91.022 6.0549 90.9373 6.29328 90.9373 6.57737V12.971C90.9373 13.2551 91.0318 13.5131 91.2143 13.7155L91.2762 13.7776H91.2828C91.4783 13.9408 91.7228 14.029 91.9933 14.029C92.2965 14.029 92.5605 13.9278 92.7528 13.7318L92.8017 13.6796V13.6731C92.9614 13.4771 93.0462 13.2355 93.0462 12.9677V6.5741C93.0462 6.26389 92.9484 6.00919 92.7495 5.81326C92.554 5.61734 92.2965 5.51611 91.9901 5.51611V5.51938Z" fill="black"/>
<path d="M87.6647 5.83267C87.1563 5.5943 86.5891 5.47021 85.9796 5.47021C85.1712 5.47021 84.4411 5.65961 83.8088 6.03186C83.1797 6.39432 82.6745 6.90699 82.3094 7.56333C81.9508 8.21315 81.7683 8.96419 81.7683 9.79033C81.7683 10.6165 81.9443 11.3283 82.3126 11.9912C82.6875 12.6345 83.1992 13.1504 83.8348 13.5292L83.8935 13.5651H83.9098C84.5421 13.9113 85.2658 14.0876 86.0643 14.0876C87.1791 14.0876 88.1211 13.7349 88.8675 13.0394L88.9196 12.9871V12.9806C89.0891 12.788 89.1641 12.5594 89.138 12.3177C89.1087 12.063 88.9783 11.8345 88.7534 11.6451C88.5644 11.4818 88.3329 11.4132 88.0885 11.4394C87.8603 11.4524 87.6419 11.5471 87.4366 11.7136C87.2573 11.8606 87.0617 11.9683 86.8433 12.0435C86.6315 12.1088 86.3707 12.1447 86.0676 12.1447C85.6145 12.1447 85.2332 12.0467 84.9072 11.8508C84.5682 11.6385 84.3107 11.3642 84.1217 11.0116C83.9359 10.6589 83.8446 10.2442 83.8446 9.7838C83.8446 9.29399 83.9391 8.86622 84.1217 8.51356C84.3009 8.16743 84.5552 7.8964 84.8779 7.70701C85.2038 7.50782 85.5689 7.40986 85.9991 7.40986C86.5858 7.40986 87.065 7.60578 87.4659 8.00743L87.5148 8.05967C87.6876 8.23274 87.8896 8.35029 88.1308 8.40907C88.3786 8.45152 88.6165 8.39927 88.8219 8.25233C89.0598 8.08253 89.2065 7.87354 89.2651 7.63191C89.3271 7.36741 89.2521 7.10291 89.05 6.87107C88.6426 6.40412 88.183 6.05145 87.681 5.82941L87.6647 5.83267Z" fill="black"/>
<path d="M74.366 4.8791C74.4931 4.64073 74.6594 4.4644 74.8778 4.33051C75.0896 4.1999 75.3471 4.13132 75.6405 4.13132C75.9338 4.13132 76.1848 4.03663 76.3771 3.85377C76.5857 3.65784 76.6966 3.40967 76.6966 3.14191C76.6966 2.85782 76.5792 2.60312 76.3739 2.42679C76.1783 2.24719 75.9306 2.15576 75.6372 2.15576C74.943 2.15576 74.3171 2.31577 73.7826 2.63251C73.2415 2.93946 72.8145 3.38028 72.5081 3.93867C72.2278 4.47093 72.0811 5.10115 72.0681 5.80647H68.2675V5.74443C68.2675 5.40809 68.3262 5.11421 68.4435 4.8791C68.5706 4.64073 68.7369 4.4644 68.9553 4.33051C69.1671 4.1999 69.4246 4.13132 69.718 4.13132C70.0113 4.13132 70.2623 4.03663 70.4546 3.85377C70.6632 3.65784 70.7741 3.40967 70.7741 3.14191C70.7741 2.85782 70.6567 2.60312 70.4514 2.42679C70.2558 2.24719 70.0081 2.15576 69.7147 2.15576C69.0204 2.15576 68.3946 2.31577 67.8601 2.63251C67.319 2.93946 66.892 3.38028 66.5889 3.93867L66.465 4.18031H66.4813C66.276 4.66032 66.1651 5.20564 66.1553 5.80974H65.8653C65.5817 5.80974 65.3405 5.8979 65.1547 6.0677L65.2622 6.18852L65.1514 6.0677C64.9624 6.24403 64.8613 6.48567 64.8613 6.76976C64.8613 7.03099 64.9624 7.26284 65.1514 7.44243L65.2622 7.32488L65.1514 7.4457C65.3372 7.61876 65.5752 7.70366 65.862 7.70366H66.1521V12.9805C66.1521 13.294 66.2629 13.5585 66.4715 13.7479C66.6703 13.9373 66.9181 14.0385 67.1821 14.0385C67.5113 14.0385 67.7753 13.9406 67.9709 13.7414C68.1665 13.5455 68.2675 13.2875 68.2675 12.9805V7.70366H72.0681V12.9805C72.0681 13.294 72.1789 13.5585 72.3875 13.7479C72.5863 13.9373 72.8341 14.0385 73.0981 14.0385C73.4273 14.0385 73.6913 13.9373 73.8869 13.7414C74.0824 13.5455 74.1835 13.2875 74.1835 12.9805V7.70366H75.647C75.9306 7.70366 76.1685 7.6155 76.3543 7.4457C76.5466 7.26937 76.6444 7.04079 76.6444 6.77303C76.6444 6.50527 76.5434 6.25057 76.3543 6.07097C76.1718 5.90117 75.9273 5.813 75.647 5.813H74.1835V5.75096C74.1835 5.41462 74.2422 5.12074 74.3595 4.88563L74.366 4.8791Z" fill="black"/>
<path d="M79.0433 5.51938C78.7499 5.51938 78.4957 5.61734 78.2904 5.80673L78.2382 5.85898V5.86551C78.0752 6.0549 77.9905 6.29328 77.9905 6.57737V12.971C77.9905 13.2551 78.085 13.5131 78.2675 13.7155L78.3295 13.7776H78.336C78.5316 13.9408 78.776 14.029 79.0466 14.029C79.3497 14.029 79.6137 13.9278 79.806 13.7318L79.8549 13.6796V13.6731C80.0146 13.4771 80.0994 13.2355 80.0994 12.9677V6.5741C80.0994 6.26389 80.0016 6.00919 79.8028 5.81326C79.6072 5.61734 79.3497 5.51611 79.0433 5.51611V5.51938Z" fill="black"/>
<path d="M79.04 2.34229C78.6945 2.34229 78.3816 2.47617 78.1371 2.7276C77.8927 2.97251 77.7688 3.27292 77.7688 3.61905C77.7688 3.94559 77.8764 4.23295 78.0915 4.47785L78.1795 4.56928H78.186C78.4305 4.7848 78.7173 4.89256 79.04 4.89256C79.3823 4.89256 79.6919 4.76521 79.9298 4.52357C80.1841 4.26887 80.3145 3.96519 80.3145 3.61905C80.3145 3.27292 80.1841 2.96924 79.9331 2.7276C79.6886 2.46964 79.3888 2.34229 79.04 2.34229Z" fill="black"/>
<path d="M61.81 3.736C61.2722 3.18741 60.6268 2.76291 59.8934 2.47229C59.1698 2.16861 58.3549 2.01514 57.4749 2.01514C56.5948 2.01514 55.7767 2.16861 55.0433 2.47229C54.3001 2.76944 53.6548 3.19721 53.1267 3.74253C52.5987 4.28459 52.1847 4.93113 51.8946 5.65932C51.6045 6.39076 51.4546 7.21038 51.4546 8.0953C51.4546 8.98022 51.6013 9.8031 51.8946 10.5411C52.1847 11.2725 52.5987 11.9223 53.1267 12.4742C53.6645 13.013 54.3066 13.4375 55.04 13.7379C55.7702 14.0285 56.5883 14.1787 57.4716 14.1787C58.3549 14.1787 59.1666 14.0318 59.8902 13.7379C60.6236 13.4342 61.2689 13.0097 61.8068 12.4742C62.3413 11.9256 62.7618 11.2758 63.0551 10.5378C63.3452 9.79657 63.4919 8.97369 63.4919 8.09203C63.4919 7.21038 63.3452 6.39076 63.0519 5.65605C62.7553 4.91154 62.3348 4.26499 61.8035 3.73926L61.81 3.736ZM61.0929 9.77371C60.9104 10.2407 60.6464 10.6554 60.3139 11.0048C59.9651 11.364 59.5414 11.6546 59.0557 11.8668C58.5896 12.0693 58.0583 12.1705 57.4781 12.1705C56.8979 12.1705 56.3699 12.0693 55.8875 11.8668C55.4051 11.6513 54.9879 11.3607 54.6456 11.008C54.3034 10.639 54.0296 10.2015 53.8373 9.70514C53.645 9.21206 53.5439 8.66674 53.5439 8.0855C53.5439 7.50426 53.6417 6.96221 53.8373 6.46587C54.0296 5.96626 54.2936 5.54503 54.6456 5.17604C54.9944 4.80705 55.4116 4.51969 55.8842 4.3205C56.3699 4.11478 56.8947 4.01682 57.4814 4.01682C58.0681 4.01682 58.5766 4.11478 59.0623 4.3205C59.5479 4.52622 59.9684 4.81358 60.3139 5.1793C60.6659 5.54503 60.9332 5.97606 61.1157 6.46587C61.308 6.95894 61.4091 7.50426 61.4091 8.0855C61.4091 8.66674 61.3113 9.2088 61.1157 9.70514L61.0897 9.77045V9.77698L61.0929 9.77371Z" fill="black"/>
<path fill-rule="evenodd" clip-rule="evenodd" d="M22.2755 25.379C17.6177 25.379 13.8269 21.5813 13.8269 16.9151C13.8269 12.2488 17.6177 8.45117 22.2755 8.45117C26.9333 8.45117 30.7274 12.2488 30.7274 16.9151C30.7274 21.5813 26.9366 25.379 22.2755 25.379ZM22.0441 23.5242H22.2755C23.0219 23.5242 23.7651 23.3936 24.4887 23.1356L24.6745 23.0703L24.6387 22.8777C24.2769 20.925 23.3512 19.6613 22.2723 19.6613C21.1934 19.6613 20.2677 20.9217 19.9091 22.8744L19.8733 23.0671L20.0591 23.1324C20.7077 23.3642 21.3759 23.4948 22.0474 23.521H22.0441V23.5242ZM27.6439 16.3991C26.1641 16.3991 25.1178 16.902 24.8473 17.7412C24.5115 18.7861 25.4307 20.076 27.1908 21.0262L27.3636 21.1209L27.4842 20.9674C28.3936 19.7951 28.876 18.3943 28.876 16.9183C28.876 16.8694 28.876 16.8236 28.8695 16.7747V16.693L28.8564 16.5004L28.6641 16.4742C28.3121 16.4253 27.9699 16.4024 27.6439 16.4024V16.3991ZM16.9039 16.3698C16.5779 16.3698 16.2389 16.3926 15.8902 16.4416L15.6979 16.4677L15.6913 16.6604L15.6848 16.7485C15.6848 16.804 15.6783 16.8563 15.6783 16.9118C15.6783 18.3878 16.1574 19.7886 17.0668 20.9609L17.1874 21.1144L17.3602 21.0197C18.8498 20.2131 19.7722 19.1192 19.7657 18.169C19.769 18.0155 19.7462 17.8588 19.7005 17.7086C19.43 16.8694 18.3837 16.3665 16.9039 16.3665V16.3698ZM22.269 15.0505C21.2912 15.0505 20.4926 15.8473 20.4926 16.8302C20.4926 17.8131 21.2879 18.6098 22.269 18.6098C23.2501 18.6098 24.0454 17.8131 24.0454 16.8302C24.0454 15.8473 23.2501 15.0505 22.269 15.0505ZM20.4535 10.5671C18.9899 10.9884 17.709 11.9125 16.8419 13.1697L16.7311 13.3329L16.8713 13.4701C17.8622 14.4236 18.915 14.9689 19.7624 14.9689C20.1177 14.9689 20.4274 14.8742 20.6816 14.6881C21.5487 14.0513 21.5682 12.4839 20.724 10.6945L20.6393 10.5149L20.4502 10.5704L20.4535 10.5671ZM23.8173 10.688C22.9731 12.4774 22.9894 14.0481 23.8596 14.6848C24.1139 14.8709 24.4235 14.9656 24.7788 14.9656C25.6263 14.9656 26.6824 14.417 27.6732 13.4603L27.8134 13.3231L27.7026 13.1599C26.8356 11.9027 25.5513 10.9819 24.0878 10.5606L23.8988 10.5051L23.814 10.6814V10.688H23.8173Z" fill="#333333"/>
<path d="M27.2364 30.7665C27.0473 30.7273 26.8648 30.6424 26.7051 30.5216C26.3758 30.2702 26.1868 29.8881 26.1868 29.4767C26.1868 28.8302 26.6496 28.2816 27.2852 28.1738C27.3602 28.164 27.4352 28.1575 27.5102 28.1575H36.0696C40.3037 28.1575 43.7457 24.7158 43.7457 20.4838C43.7457 17.3817 41.8943 14.6028 39.0292 13.4044C38.0905 13.0126 37.0931 12.8101 36.0696 12.8101C35.685 12.8101 35.3036 12.8395 34.9288 12.895C34.681 11.6444 34.2475 10.4395 33.6347 9.30964C31.389 5.17565 27.0799 2.60905 22.3895 2.60905C18.4846 2.60905 14.8437 4.36257 12.3991 7.41897C12.2166 7.64755 12.0373 7.88919 11.8613 8.14389C11.8059 8.22552 11.7505 8.30716 11.6983 8.38879C11.4441 8.70227 11.0692 8.88187 10.6683 8.88187C9.94472 8.88187 9.35801 8.30389 9.34497 7.58551L9.4069 7.16101L9.43624 7.05651C9.53076 6.91284 9.62529 6.76916 9.72633 6.62548C12.611 2.47517 17.3438 0 22.3895 0C28.7455 0 34.3681 3.81398 36.7117 9.71454L36.9105 10.2174L37.4484 10.2893C42.5332 10.9685 46.3663 15.3506 46.3663 20.4838C46.3663 26.1558 41.7476 30.7665 36.0696 30.7665H27.2364Z" fill="#5EB19B"/>
<path d="M0.717089 16.7187C0.32269 16.7187 0 16.4542 0 16.1277C0 15.8011 0.32269 15.5366 0.717089 15.5366H9.55033C9.94473 15.5366 10.2674 15.8011 10.2674 16.1277C10.2674 16.4542 9.94473 16.7187 9.55033 16.7187H0.717089Z" fill="#D9D9D9"/>
<path d="M4.12342 19.4755C3.79747 19.4755 3.53345 19.211 3.53345 18.8845C3.53345 18.558 3.79747 18.2935 4.12342 18.2935H9.6776C10.0035 18.2935 10.2676 18.558 10.2676 18.8845C10.2676 19.211 10.0035 19.4755 9.6776 19.4755H4.12342Z" fill="#D9D9D9"/>
</svg>
